<svg width="28" height="28" viewBox="0 0 28 28" fill="none" xmlns="http://www.w3.org/2000/svg">
<path d="M7.00001 25.6667V4.66668C7.00001 4.35168 7.00001 4.02501 7.08168 3.71001C7.15309 3.39574 7.31119 3.1078 7.53805 2.87888C7.7649 2.64997 8.0514 2.48926 8.36501 2.41501C8.70334 2.33334 10.185 2.33334 10.5 2.33334H18.6667C18.9817 2.33334 19.3083 2.33334 19.6233 2.41501C19.9376 2.48642 20.2256 2.64453 20.4545 2.87138C20.6834 3.09823 20.8441 3.38473 20.9183 3.69834C21 4.02501 21 4.35168 21 4.66668V25.6667H7.00001ZM2.33334 16.3333V23.3333C2.33334 24.6167 3.38334 25.6667 4.66668 25.6667H7.00001V14H4.66668C4.35168 14 4.02501 14 3.71001 14.0817C3.39501 14.1633 3.10334 14.315 2.87001 14.5483C2.64834 14.77 2.49668 15.0617 2.41501 15.3767C2.34915 15.6911 2.32173 16.0123 2.33334 16.3333ZM24.29 10.5817C23.9756 10.5158 23.6544 10.4884 23.3333 10.5H21V25.6667H23.3333C23.9522 25.6667 24.5457 25.4208 24.9833 24.9833C25.4208 24.5457 25.6667 23.9522 25.6667 23.3333V12.8333C25.6667 12.5067 25.6667 12.1917 25.585 11.8767C25.5033 11.5617 25.3517 11.27 25.1183 11.0367C24.8967 10.815 24.605 10.6633 24.29 10.5817Z" fill="#282D42" stroke="#494C73" stroke-width="1.5" stroke-linecap="round" stroke-linejoin="round"/>
<path d="M11.6667 21H16.3334M11.6667 7H16.3334H11.6667ZM11.6667 11.6667H16.3334H11.6667ZM11.6667 16.3333H16.3334H11.6667Z" stroke="#494C73" stroke-width="1.5" stroke-linecap="round" stroke-linejoin="round"/>
</svg>
