<svg width="28" height="28" viewBox="0 0 28 28" fill="none" xmlns="http://www.w3.org/2000/svg">
<path d="M15.5259 3.87367L22.9053 8.22479C25.0316 9.47034 25.0316 11.5297 22.9053 12.7752L15.5259 17.1263C14.6879 17.6246 13.3121 17.6246 12.4741 17.1263L5.0947 12.7752C2.96843 11.5297 2.96843 9.47034 5.0947 8.22479L12.4741 3.87367C13.3121 3.37544 14.6879 3.37544 15.5259 3.87367Z" fill="#282D42" stroke="#494C73" stroke-width="1.5" stroke-linecap="round" stroke-linejoin="round"/>
<path d="M3.5 16.3333C3.5 17.6174 4.235 19.1001 5.13333 19.6199L13.055 24.2363C13.6617 24.5879 14.35 24.5879 14.945 24.2363L22.8667 19.6199C23.765 19.1001 24.5 17.6174 24.5 16.3333" stroke="#494C73" stroke-width="1.5" stroke-linecap="round" stroke-linejoin="round"/>
</svg>
