<svg width="28" height="28" viewBox="0 0 28 28" fill="none" xmlns="http://www.w3.org/2000/svg">
<path d="M14 25.6667C20.4435 25.6667 25.6666 20.4435 25.6666 14C25.6666 7.5565 20.4435 2.33333 14 2.33333C7.55648 2.33333 2.33331 7.5565 2.33331 14C2.33331 20.4435 7.55648 25.6667 14 25.6667Z" fill="#282D42" stroke="#494C73" stroke-width="1.5" stroke-linecap="round" stroke-linejoin="round"/>
<path d="M17.5 9.33333H14M14 9.33333H12.8333C12.2145 9.33333 11.621 9.57917 11.1834 10.0168C10.7458 10.4543 10.5 11.0478 10.5 11.6667C10.5 12.2855 10.7458 12.879 11.1834 13.3166C11.621 13.7542 12.2145 14 12.8333 14H15.1667C15.7855 14 16.379 14.2458 16.8166 14.6834C17.2542 15.121 17.5 15.7145 17.5 16.3333C17.5 16.9522 17.2542 17.5457 16.8166 17.9832C16.379 18.4208 15.7855 18.6667 15.1667 18.6667H14M14 9.33333V7M10.5 18.6667H14M14 18.6667V21" stroke="#494C73" stroke-width="1.5" stroke-linecap="round" stroke-linejoin="round"/>
</svg>
