<svg width="28" height="28" viewBox="0 0 28 28" fill="none" xmlns="http://www.w3.org/2000/svg">
<path d="M16.5528 22.1795L16.55 22.1833L14.8 24.5167C14.5358 24.8689 14.2388 24.9867 14 24.9867C13.7612 24.9867 13.4641 24.8689 13.2 24.5167L11.4527 22.1869C11.2663 21.9332 11.0026 21.7498 10.7645 21.6318C10.5238 21.5124 10.222 21.4167 9.91665 21.4167H9.33331C7.01324 21.4167 5.51884 21.1137 4.57719 20.2897C3.66031 19.4875 3.08331 18.0187 3.08331 15.1667V9.33333C3.08331 7.11561 3.63724 5.59007 4.61364 4.61366C5.59005 3.63726 7.11559 3.08333 9.33331 3.08333H18.6666C20.8844 3.08333 22.4099 3.63726 23.3863 4.61366C24.3627 5.59007 24.9166 7.11561 24.9166 9.33333V15.1667C24.9166 17.3844 24.3627 18.9099 23.3863 19.8863C22.4099 20.8627 20.8844 21.4167 18.6666 21.4167H18.0833C17.4837 21.4167 16.9142 21.7041 16.5528 22.1795Z" fill="#282D42" stroke="#494C73" stroke-width="1.5" stroke-miterlimit="10" stroke-linecap="round" stroke-linejoin="round"/>
<path d="M8.16669 9.33333H19.8334" stroke="#494C73" stroke-width="1.5" stroke-linecap="round" stroke-linejoin="round"/>
<path d="M8.16669 15.1667H15.1667" stroke="#494C73" stroke-width="1.5" stroke-linecap="round" stroke-linejoin="round"/>
</svg>
