<svg width="14" height="14" viewBox="0 0 14 14" fill="none" xmlns="http://www.w3.org/2000/svg">
<path d="M4.95768 11.0827H4.66602C2.33268 11.0827 1.16602 10.4993 1.16602 7.58268V4.66602C1.16602 2.33268 2.33268 1.16602 4.66602 1.16602H9.33268C11.666 1.16602 12.8327 2.33268 12.8327 4.66602V7.58268C12.8327 9.91602 11.666 11.0827 9.33268 11.0827H9.04102C8.86018 11.0827 8.68518 11.1702 8.57435 11.316L7.69935 12.4827C7.31435 12.996 6.68435 12.996 6.29935 12.4827L5.42435 11.316C5.33102 11.1877 5.11518 11.0827 4.95768 11.0827Z" stroke="#494C73" stroke-width="1.5" stroke-miterlimit="10" stroke-linecap="round" stroke-linejoin="round"/>
<path d="M9.33125 6.41667H9.33649" stroke="#494C73" stroke-width="2" stroke-linecap="round" stroke-linejoin="round"/>
<path d="M6.99739 6.41667H7.00263" stroke="#494C73" stroke-width="2" stroke-linecap="round" stroke-linejoin="round"/>
<path d="M4.66346 6.41667H4.6687" stroke="#494C73" stroke-width="2" stroke-linecap="round" stroke-linejoin="round"/>
</svg>
