<svg width="28" height="28" viewBox="0 0 28 28" fill="none" xmlns="http://www.w3.org/2000/svg">
<path d="M17.5 9.33332V6.99999C17.5 6.38115 17.2542 5.78766 16.8166 5.35007C16.379 4.91249 15.7855 4.66666 15.1667 4.66666H12.8333C12.2145 4.66666 11.621 4.91249 11.1834 5.35007C10.7458 5.78766 10.5 6.38115 10.5 6.99999V9.33332H17.5ZM17.5 9.33332H22.1667C22.7855 9.33332 23.379 9.57916 23.8166 10.0167C24.2542 10.4543 24.5 11.0478 24.5 11.6667V21C24.5 21.6188 24.2542 22.2123 23.8166 22.6499C23.379 23.0875 22.7855 23.3333 22.1667 23.3333H5.83333C5.21449 23.3333 4.621 23.0875 4.18342 22.6499C3.74583 22.2123 3.5 21.6188 3.5 21V11.6667C3.5 11.0478 3.74583 10.4543 4.18342 10.0167C4.621 9.57916 5.21449 9.33332 5.83333 9.33332H10.5H17.5ZM17.5 9.33332H10.5H17.5Z" fill="#282D42"/>
<path d="M17.5 9.33332H10.5M17.5 9.33332V6.99999C17.5 6.38115 17.2542 5.78766 16.8166 5.35007C16.379 4.91249 15.7855 4.66666 15.1667 4.66666H12.8333C12.2145 4.66666 11.621 4.91249 11.1834 5.35007C10.7458 5.78766 10.5 6.38115 10.5 6.99999V9.33332H17.5ZM17.5 9.33332H22.1667C22.7855 9.33332 23.379 9.57916 23.8166 10.0167C24.2542 10.4543 24.5 11.0478 24.5 11.6667V21C24.5 21.6188 24.2542 22.2123 23.8166 22.6499C23.379 23.0875 22.7855 23.3333 22.1667 23.3333H5.83333C5.21449 23.3333 4.621 23.0875 4.18342 22.6499C3.74583 22.2123 3.5 21.6188 3.5 21V11.6667C3.5 11.0478 3.74583 10.4543 4.18342 10.0167C4.621 9.57916 5.21449 9.33332 5.83333 9.33332H10.5H17.5Z" stroke="#494C73" stroke-width="1.5" stroke-linecap="round" stroke-linejoin="round"/>
</svg>
