<svg width="28" height="28" viewBox="0 0 28 28" fill="none" xmlns="http://www.w3.org/2000/svg">
<path fill-rule="evenodd" clip-rule="evenodd" d="M15.4667 8.13047C15.4667 10.5591 13.4969 12.5276 11.0667 12.5276C8.6364 12.5276 6.66667 10.5591 6.66667 8.13047C6.66667 5.70178 8.6364 3.73333 11.0667 3.73333C13.4969 3.73333 15.4667 5.70178 15.4667 8.13047Z" fill="#2A3764"/>
<path fill-rule="evenodd" clip-rule="evenodd" d="M18.4 24.2533H3.73334C3.73334 23.2119 3.73334 22.2212 3.73334 21.324C3.73334 18.8939 5.70328 16.9247 8.13334 16.9247H14C16.4301 16.9247 18.4 18.8939 18.4 21.324C18.4 22.2212 18.4 23.2119 18.4 24.2533Z" fill="#2A3764"/>
<path d="M16.9333 12.5333C16.9333 14.1534 18.2466 15.4667 19.8667 15.4667C21.4867 15.4667 22.8 14.1534 22.8 12.5333C22.8 10.9133 21.4867 9.6 19.8667 9.6C18.2466 9.6 16.9333 10.9133 16.9333 12.5333Z" fill="#2A3764"/>
<path d="M20.6 24.2667H24.2667V22.0667C24.2667 20.0416 22.6251 18.4 20.6 18.4M15.4667 8.13047C15.4667 10.5591 13.4969 12.5276 11.0667 12.5276C8.6364 12.5276 6.66667 10.5591 6.66667 8.13047C6.66667 5.70178 8.6364 3.73333 11.0667 3.73333C13.4969 3.73333 15.4667 5.70178 15.4667 8.13047ZM18.4 24.2533H3.73334C3.73334 23.2119 3.73334 22.2212 3.73334 21.324C3.73334 18.8939 5.70328 16.9247 8.13334 16.9247H14C16.4301 16.9247 18.4 18.8939 18.4 21.324C18.4 22.2212 18.4 23.2119 18.4 24.2533ZM19.8667 15.4667C18.2466 15.4667 16.9333 14.1534 16.9333 12.5333C16.9333 10.9133 18.2466 9.6 19.8667 9.6C21.4867 9.6 22.8 10.9133 22.8 12.5333C22.8 14.1534 21.4867 15.4667 19.8667 15.4667Z" stroke="#3152E7" stroke-width="1.5"/>
</svg>
